# xmcd
#
# Track frame offsets: 
#        182
#        45115
#        80260
#        107367
#        144285
#
# Disc length: 2379 seconds
#
# Revision: 3
# Processed by: cddbd v1.5.2PL0 Copyright (c) Steve Scherf et al.
# Submitted via: ExactAudioCopy v0.95a5
#
DISCID=29094905
DTITLE=Tim Buckley - Lorca
DYEAR=1970
DGENRE=Blues
TTITLE0=Lorca
TTITLE1=Anonymous Proposition
TTITLE2=I Had A Talk With My Woman
TTITLE3=Driftin'
TTITLE4=Nobody Walkin'
EXTD=
EXTT0=
EXTT1=
EXTT2=
EXTT3=
EXTT4=
PLAYORDER=
